<svg xmlns="http://www.w3.org/2000/svg" xmlns:xlink="http://www.w3.org/1999/xlink" width="375" height="812" viewBox="0 0 375 812">
  <defs>
    <style>
      .cls-1 {
        fill: #65a3ff;
      }

      .cls-2 {
        clip-path: url(#clip-iPhone_X_XS_11_Pro_2);
      }

      .cls-3 {
        clip-path: url(#clip-path);
      }

      .cls-11, .cls-26, .cls-4, .cls-7, .cls-8, .cls-9 {
        fill: #fff;
      }

      .cls-4 {
        font-size: 15px;
        font-family: SFProDisplay-Medium, SF Pro Display;
      }

      .cls-21, .cls-4 {
        font-weight: 500;
      }

      .cls-5 {
        fill: rgba(0,0,0,0);
      }

      .cls-10, .cls-18, .cls-20, .cls-23, .cls-6 {
        fill: none;
      }

      .cls-10, .cls-6 {
        stroke-miterlimit: 10;
      }

      .cls-6, .cls-7 {
        opacity: 0.4;
      }

      .cls-9 {
        font-size: 12px;
        font-family: SFProText-Regular, SF Pro Text;
      }

      .cls-10 {
        stroke: #fff;
      }

      .cls-11 {
        font-size: 10px;
        font-family: SFProText-Semibold, SF Pro Text;
        font-weight: 600;
      }

      .cls-12 {
        fill: #f2f2f2;
      }

      .cls-13 {
        fill: #cfcfcf;
      }

      .cls-14 {
        fill: #b3b3b3;
      }

      .cls-15 {
        fill: #58ad44;
      }

      .cls-16, .cls-17 {
        fill: #707070;
        font-family: HelveticaNeue, Helvetica Neue;
      }

      .cls-16 {
        font-size: 14px;
      }

      .cls-17 {
        font-size: 20px;
      }

      .cls-18 {
        stroke: #000;
      }

      .cls-18, .cls-20 {
        stroke-linecap: round;
        stroke-linejoin: round;
        stroke-width: 3px;
      }

      .cls-19 {
        fill: #de0101;
      }

      .cls-20 {
        stroke: #58ad44;
      }

      .cls-21 {
        fill: #4889f6;
        font-size: 13px;
        font-family: HelveticaNeue-Medium, Helvetica Neue;
      }

      .cls-22 {
        fill: #f4f4f4;
      }

      .cls-23 {
        stroke: #eaeaea;
        stroke-width: 2px;
      }

      .cls-24 {
        fill: #9c9c9e;
      }

      .cls-25, .cls-26 {
        stroke: none;
      }
    </style>
    <clipPath id="clip-path">
      <rect id="Mask" class="cls-1" width="375" height="70.441" transform="translate(375 70.441) rotate(180)"/>
    </clipPath>
    <clipPath id="clip-iPhone_X_XS_11_Pro_2">
      <rect width="375" height="812"/>
    </clipPath>
  </defs>
  <g id="iPhone_X_XS_11_Pro_2" data-name="iPhone X/XS/11 Pro – 2" class="cls-2">
    <rect class="cls-8" width="375" height="812"/>
    <g id="nav_bar" data-name="nav bar" transform="translate(375) rotate(180)">
      <g id="Group_24" data-name="Group 24" transform="translate(0 -70.441)">
        <g id="nav_bar-2" data-name="nav bar">
          <g id="Group_23" data-name="Group 23">
            <g id="ui_pic" data-name="ui/pic">
              <rect id="Mask-2" data-name="Mask" class="cls-1" width="375" height="70.441" transform="translate(375 70.441) rotate(180)"/>
            </g>
          </g>
        </g>
        <text id="Connect" class="cls-4" transform="translate(341.667 33.466) rotate(180)"><tspan x="101.172" y="14">Veranstaltungen</tspan></text>
      </g>
      <g id="Bars_Status_Black" data-name="Bars/Status/Black" transform="translate(375) rotate(180)">
        <rect id="Bars_Status_Black_background" data-name="Bars/Status/Black background" class="cls-5" width="375" height="22.14"/>
        <g id="Pin_Right" data-name="Pin Right" transform="translate(298.5 3.5)">
          <g id="Battery" transform="translate(8.5)">
            <g id="Battery-2" data-name="Battery" transform="translate(36 1)">
              <g id="Border" class="cls-6">
                <path class="cls-25" d="M0,2.5A2.5,2.5,0,0,1,2.5,0h19A2.5,2.5,0,0,1,24,2.5V9a2.5,2.5,0,0,1-2.5,2.5H2.5A2.5,2.5,0,0,1,0,9Z"/>
                <path class="cls-26" d="M 2.5 1 C 1.67289924621582 1 1 1.672900199890137 1 2.5 L 1 9 C 1 9.827099800109863 1.67289924621582 10.5 2.5 10.5 L 20.14764022827148 10.5 L 21.5 10.5 C 22.32710075378418 10.5 23 9.827099800109863 23 9 L 23 2.5 C 23 1.672900199890137 22.32710075378418 1 21.5 1 L 2.5 1 M 2.5 0 L 21.5 0 C 22.88071060180664 0 24 1.119290351867676 24 2.5 L 24 9 C 24 10.38070964813232 22.88071060180664 11.5 21.5 11.5 L 20.14764022827148 11.5 L 0 11.5 L 2.5 11.5 C 1.119289398193359 11.5 0 10.38070964813232 0 9 L 0 2.5 C 0 1.119290351867676 1.119289398193359 0 2.5 0 Z"/>
              </g>
              <path id="Nub" class="cls-7" d="M0,3.874H0V0A2,2,0,0,1,1.5,1.937,2,2,0,0,1,0,3.873Z" transform="translate(25 4)"/>
              <rect id="Charge" class="cls-8" width="20" height="7.5" rx="0.5" transform="translate(2 2)"/>
            </g>
            <text id="_100_" data-name="100%" class="cls-9"><tspan x="2.209" y="11">100%</tspan></text>
          </g>
          <path id="Bluetooth" class="cls-10" d="M0,2,6,7.5,3,10V0L6,2.5,0,8" transform="translate(0 1.5)"/>
        </g>
        <text id="Time" class="cls-11" transform="translate(183.5 14)"><tspan x="-20.137" y="0">9:41 AM</tspan></text>
        <g id="Signal">
          <rect id="Signal_background" data-name="Signal background" class="cls-5" width="139" height="20" transform="translate(0)"/>
          <text id="Carrier" class="cls-9" transform="translate(26 14.5)"><tspan x="0" y="0">Sketch</tspan></text>
          <path id="Mobile_Signal" data-name="Mobile Signal" class="cls-8" d="M14.5,10a1,1,0,0,1-1-1V1a1,1,0,0,1,1-1h1a1,1,0,0,1,1,1V9a1,1,0,0,1-1,1ZM10,10A1,1,0,0,1,9,9V3a1,1,0,0,1,1-1h1a1,1,0,0,1,1,1V9a1,1,0,0,1-1,1ZM5.5,10a1,1,0,0,1-1-1V5a1,1,0,0,1,1-1h1a1,1,0,0,1,1,1V9a1,1,0,0,1-1,1ZM1,10A1,1,0,0,1,0,9V6.5a1,1,0,0,1,1-1H2a1,1,0,0,1,1,1V9a1,1,0,0,1-1,1Z" transform="translate(6 5)"/>
          <path id="Wifi" class="cls-8" d="M7.17,10h0L4.958,7.788a3.5,3.5,0,0,1,4.424,0L7.171,10ZM3.892,6.724h0L2.477,5.306a7,7,0,0,1,9.387,0L10.448,6.722a5,5,0,0,0-6.555,0ZM1.414,4.245h0L0,2.83a10.5,10.5,0,0,1,14.341,0L12.927,4.244a8.5,8.5,0,0,0-11.512,0Z" transform="translate(71.33 5)"/>
        </g>
      </g>
    </g>
    <path id="Icon_awesome-edit" data-name="Icon awesome-edit" class="cls-8" d="M17.006,3.517l3.81,3.81a.413.413,0,0,1,0,.583L11.59,17.135l-3.92.435a.822.822,0,0,1-.908-.908l.435-3.92,9.225-9.225A.413.413,0,0,1,17.006,3.517Zm6.843-.967L21.787.489a1.652,1.652,0,0,0-2.332,0l-1.5,1.5a.413.413,0,0,0,0,.583l3.81,3.81a.413.413,0,0,0,.583,0l1.5-1.5a1.652,1.652,0,0,0,0-2.332ZM16.22,14.626v4.3H2.7V5.409H12.41a.519.519,0,0,0,.359-.148l1.69-1.69a.507.507,0,0,0-.359-.866H2.027A2.028,2.028,0,0,0,0,4.734V19.6a2.028,2.028,0,0,0,2.027,2.027H16.9A2.028,2.028,0,0,0,18.923,19.6V12.937a.508.508,0,0,0-.866-.359l-1.69,1.69A.519.519,0,0,0,16.22,14.626Z" transform="translate(305.001 35.213)"/>
    <path id="Icon_ionic-ios-add" data-name="Icon ionic-ios-add" class="cls-8" d="M25.91,16.875H19.125V10.09a1.125,1.125,0,0,0-2.25,0v6.785H10.09a1.125,1.125,0,0,0,0,2.25h6.785V25.91a1.125,1.125,0,0,0,2.25,0V19.125H25.91a1.125,1.125,0,0,0,0-2.25Z" transform="translate(338.606 28.032)"/>
    <g id="Group_229" data-name="Group 229">
      <g id="Group_7_Copy_9" data-name="Group 7 Copy 9" transform="translate(0.5 71.003)">
        <g id="Group_3" data-name="Group 3">
          <rect id="Rectangle" class="cls-12" width="374.5" height="95.678"/>
          <rect id="Rectangle_Copy" data-name="Rectangle Copy" class="cls-13" width="326.614" height="0.384" transform="translate(0 95.182)"/>
          <g id="_4._icons_back_arrow" data-name="4. icons / back arrow" transform="translate(352.455 42.843)">
            <rect id="Rectangle-2" data-name="Rectangle" class="cls-14" width="1.62" height="7.292" rx="0.81" transform="translate(1.146 10.411) rotate(-135)"/>
            <rect id="Rectangle_Copy-2" data-name="Rectangle Copy" class="cls-14" width="1.62" height="7.292" rx="0.81" transform="translate(0.058 1.146) rotate(-45)"/>
          </g>
          <rect id="Rectangle_1" data-name="Rectangle 1" class="cls-15" width="8" height="96" transform="translate(-0.5 -0.003)"/>
          <text id="Montag_02.03.2023" data-name="Montag, 02.03.2023" class="cls-16" transform="translate(23.5 25.997)"><tspan x="0" y="0">Montag, 02.03.2023</tspan></text>
          <text id="Ein_sehr_langer_Titel_der_über_mehrere_Zeilen_gehen_kann" data-name="Ein sehr langer Titel, der über
mehrere Zeilen gehen kann" class="cls-17" transform="translate(23.5 55.997)"><tspan x="0" y="0">Ein sehr langer Titel, der über</tspan><tspan x="0" y="24">mehrere Zeilen gehen kann</tspan></text>
        </g>
      </g>
      <path id="Icon_open-infinity" data-name="Icon open-infinity" d="M4.56,0A4.424,4.424,0,0,0,0,4.56,4.424,4.424,0,0,0,4.56,9.12c1.8,0,3.238-1.277,4.56-2.782,1.322,1.5,2.713,2.782,4.56,2.782a4.424,4.424,0,0,0,4.56-4.56A4.424,4.424,0,0,0,13.68,0c-1.847,0-3.238,1.277-4.56,2.782C7.8,1.277,6.361,0,4.56,0Zm0,2.28c.958,0,2.006,1.072,3.055,2.28C6.566,5.768,5.518,6.84,4.56,6.84A2.141,2.141,0,0,1,2.28,4.56,2.141,2.141,0,0,1,4.56,2.28Zm9.12,0a2.141,2.141,0,0,1,2.28,2.28,2.141,2.141,0,0,1-2.28,2.28c-.98,0-2.029-1.072-3.055-2.28C11.674,3.352,12.7,2.28,13.68,2.28Z" transform="translate(320.331 81.265)"/>
      <path id="Icon_awesome-calendar-check" data-name="Icon awesome-calendar-check" class="cls-15" d="M18.484,6.783H.509A.509.509,0,0,1,0,6.274V4.748A2.035,2.035,0,0,1,2.035,2.713H4.07V.509A.509.509,0,0,1,4.579,0h1.7a.509.509,0,0,1,.509.509v2.2H12.21V.509A.509.509,0,0,1,12.718,0h1.7a.509.509,0,0,1,.509.509v2.2h2.035a2.035,2.035,0,0,1,2.035,2.035V6.274A.509.509,0,0,1,18.484,6.783ZM.509,8.14H18.484a.509.509,0,0,1,.509.509V19.671a2.035,2.035,0,0,1-2.035,2.035H2.035A2.035,2.035,0,0,1,0,19.671V8.649A.509.509,0,0,1,.509,8.14Zm14.13,4.068L13.445,11a.509.509,0,0,0-.719,0L8.23,15.46,6.28,13.495a.509.509,0,0,0-.719,0l-1.2,1.194a.509.509,0,0,0,0,.719l3.5,3.53a.509.509,0,0,0,.719,0l6.06-6.012a.509.509,0,0,0,0-.719Z" transform="translate(319.578 134.571)"/>
      <g id="Icon_feather-mail" data-name="Icon feather-mail" transform="translate(316.977 98.424)">
        <path id="Path_550" data-name="Path 550" class="cls-18" d="M4.759,6H18.834a1.765,1.765,0,0,1,1.759,1.759V18.316a1.765,1.765,0,0,1-1.759,1.759H4.759A1.765,1.765,0,0,1,3,18.316V7.759A1.765,1.765,0,0,1,4.759,6Z"/>
        <path id="Path_551" data-name="Path 551" class="cls-18" d="M20.594,9l-8.8,6.158L3,9" transform="translate(0 -1.241)"/>
      </g>
    </g>
    <g id="Group_229-2" data-name="Group 229" transform="translate(0 101)">
      <g id="Group_7_Copy_9-2" data-name="Group 7 Copy 9" transform="translate(0.5 71.003)">
        <g id="Group_3-2" data-name="Group 3">
          <rect id="Rectangle-3" data-name="Rectangle" class="cls-12" width="374.5" height="95.678"/>
          <rect id="Rectangle_Copy-3" data-name="Rectangle Copy" class="cls-13" width="326.614" height="0.384" transform="translate(0 95.182)"/>
          <g id="_4._icons_back_arrow-2" data-name="4. icons / back arrow" transform="translate(352.455 42.843)">
            <rect id="Rectangle-4" data-name="Rectangle" class="cls-14" width="1.62" height="7.292" rx="0.81" transform="translate(1.146 10.411) rotate(-135)"/>
            <rect id="Rectangle_Copy-4" data-name="Rectangle Copy" class="cls-14" width="1.62" height="7.292" rx="0.81" transform="translate(0.058 1.146) rotate(-45)"/>
          </g>
          <rect id="Rectangle_1-2" data-name="Rectangle 1" class="cls-19" width="8" height="96" transform="translate(-0.5 -0.003)"/>
          <text id="Montag_02.03.2023-2" data-name="Montag, 02.03.2023" class="cls-16" transform="translate(23.5 25.997)"><tspan x="0" y="0">Montag, 02.03.2023</tspan></text>
          <text id="Ein_sehr_langer_Titel_der_über_mehrere_Zeilen_gehen_kann-2" data-name="Ein sehr langer Titel, der über
mehrere Zeilen gehen kann" class="cls-17" transform="translate(23.5 55.997)"><tspan x="0" y="0">Ein sehr langer Titel, der über</tspan><tspan x="0" y="24">mehrere Zeilen gehen kann</tspan></text>
        </g>
      </g>
      <path id="Icon_awesome-calendar-check-2" data-name="Icon awesome-calendar-check" d="M18.484,6.783H.509A.509.509,0,0,1,0,6.274V4.748A2.035,2.035,0,0,1,2.035,2.713H4.07V.509A.509.509,0,0,1,4.579,0h1.7a.509.509,0,0,1,.509.509v2.2H12.21V.509A.509.509,0,0,1,12.718,0h1.7a.509.509,0,0,1,.509.509v2.2h2.035a2.035,2.035,0,0,1,2.035,2.035V6.274A.509.509,0,0,1,18.484,6.783ZM.509,8.14H18.484a.509.509,0,0,1,.509.509V19.671a2.035,2.035,0,0,1-2.035,2.035H2.035A2.035,2.035,0,0,1,0,19.671V8.649A.509.509,0,0,1,.509,8.14Zm14.13,4.068L13.445,11a.509.509,0,0,0-.719,0L8.23,15.46,6.28,13.495a.509.509,0,0,0-.719,0l-1.2,1.194a.509.509,0,0,0,0,.719l3.5,3.53a.509.509,0,0,0,.719,0l6.06-6.012a.509.509,0,0,0,0-.719Z" transform="translate(319.578 134.571)"/>
    </g>
    <g id="Group_229-3" data-name="Group 229" transform="translate(0 202)">
      <g id="Group_7_Copy_9-3" data-name="Group 7 Copy 9" transform="translate(0.5 71.003)">
        <g id="Group_3-3" data-name="Group 3">
          <rect id="Rectangle-5" data-name="Rectangle" class="cls-12" width="374.5" height="95.678"/>
          <rect id="Rectangle_Copy-5" data-name="Rectangle Copy" class="cls-13" width="326.614" height="0.384" transform="translate(0 95.182)"/>
          <g id="_4._icons_back_arrow-3" data-name="4. icons / back arrow" transform="translate(352.455 42.843)">
            <rect id="Rectangle-6" data-name="Rectangle" class="cls-14" width="1.62" height="7.292" rx="0.81" transform="translate(1.146 10.411) rotate(-135)"/>
            <rect id="Rectangle_Copy-6" data-name="Rectangle Copy" class="cls-14" width="1.62" height="7.292" rx="0.81" transform="translate(0.058 1.146) rotate(-45)"/>
          </g>
          <rect id="Rectangle_1-3" data-name="Rectangle 1" class="cls-15" width="8" height="96" transform="translate(-0.5 -0.003)"/>
          <text id="Montag_02.03.2023-3" data-name="Montag, 02.03.2023" class="cls-16" transform="translate(23.5 25.997)"><tspan x="0" y="0">Montag, 02.03.2023</tspan></text>
          <text id="Ein_sehr_langer_Titel_der_über_mehrere_Zeilen_gehen_kann-3" data-name="Ein sehr langer Titel, der über
mehrere Zeilen gehen kann" class="cls-17" transform="translate(23.5 55.997)"><tspan x="0" y="0">Ein sehr langer Titel, der über</tspan><tspan x="0" y="24">mehrere Zeilen gehen kann</tspan></text>
        </g>
      </g>
      <g id="Icon_feather-mail-2" data-name="Icon feather-mail" transform="translate(316.977 98.424)">
        <path id="Path_550-2" data-name="Path 550" class="cls-20" d="M4.759,6H18.834a1.765,1.765,0,0,1,1.759,1.759V18.316a1.765,1.765,0,0,1-1.759,1.759H4.759A1.765,1.765,0,0,1,3,18.316V7.759A1.765,1.765,0,0,1,4.759,6Z"/>
        <path id="Path_551-2" data-name="Path 551" class="cls-20" d="M20.594,9l-8.8,6.158L3,9" transform="translate(0 -1.241)"/>
      </g>
    </g>
    <g id="Group_229-4" data-name="Group 229" transform="translate(0 303)">
      <g id="Group_7_Copy_9-4" data-name="Group 7 Copy 9" transform="translate(0.5 71.003)">
        <g id="Group_3-4" data-name="Group 3">
          <rect id="Rectangle-7" data-name="Rectangle" class="cls-12" width="374.5" height="95.678"/>
          <rect id="Rectangle_Copy-7" data-name="Rectangle Copy" class="cls-13" width="326.614" height="0.384" transform="translate(0 95.182)"/>
          <g id="_4._icons_back_arrow-4" data-name="4. icons / back arrow" transform="translate(352.455 42.843)">
            <rect id="Rectangle-8" data-name="Rectangle" class="cls-14" width="1.62" height="7.292" rx="0.81" transform="translate(1.146 10.411) rotate(-135)"/>
            <rect id="Rectangle_Copy-8" data-name="Rectangle Copy" class="cls-14" width="1.62" height="7.292" rx="0.81" transform="translate(0.058 1.146) rotate(-45)"/>
          </g>
          <rect id="Rectangle_1-4" data-name="Rectangle 1" class="cls-15" width="8" height="96" transform="translate(-0.5 -0.003)"/>
          <text id="Montag_02.03.2023-4" data-name="Montag, 02.03.2023" class="cls-16" transform="translate(23.5 25.997)"><tspan x="0" y="0">Montag, 02.03.2023</tspan></text>
          <text id="Ein_sehr_langer_Titel_der_über_mehrere_Zeilen_gehen_kann-4" data-name="Ein sehr langer Titel, der über
mehrere Zeilen gehen kann" class="cls-17" transform="translate(23.5 55.997)"><tspan x="0" y="0">Ein sehr langer Titel, der über</tspan><tspan x="0" y="24">mehrere Zeilen gehen kann</tspan></text>
        </g>
      </g>
      <path id="Icon_awesome-calendar-check-3" data-name="Icon awesome-calendar-check" class="cls-15" d="M18.484,6.783H.509A.509.509,0,0,1,0,6.274V4.748A2.035,2.035,0,0,1,2.035,2.713H4.07V.509A.509.509,0,0,1,4.579,0h1.7a.509.509,0,0,1,.509.509v2.2H12.21V.509A.509.509,0,0,1,12.718,0h1.7a.509.509,0,0,1,.509.509v2.2h2.035a2.035,2.035,0,0,1,2.035,2.035V6.274A.509.509,0,0,1,18.484,6.783ZM.509,8.14H18.484a.509.509,0,0,1,.509.509V19.671a2.035,2.035,0,0,1-2.035,2.035H2.035A2.035,2.035,0,0,1,0,19.671V8.649A.509.509,0,0,1,.509,8.14Zm14.13,4.068L13.445,11a.509.509,0,0,0-.719,0L8.23,15.46,6.28,13.495a.509.509,0,0,0-.719,0l-1.2,1.194a.509.509,0,0,0,0,.719l3.5,3.53a.509.509,0,0,0,.719,0l6.06-6.012a.509.509,0,0,0,0-.719Z" transform="translate(319.578 134.571)"/>
      <g id="Icon_feather-mail-3" data-name="Icon feather-mail" transform="translate(316.977 98.424)">
        <path id="Path_550-3" data-name="Path 550" class="cls-20" d="M4.759,6H18.834a1.765,1.765,0,0,1,1.759,1.759V18.316a1.765,1.765,0,0,1-1.759,1.759H4.759A1.765,1.765,0,0,1,3,18.316V7.759A1.765,1.765,0,0,1,4.759,6Z"/>
        <path id="Path_551-3" data-name="Path 551" class="cls-20" d="M20.594,9l-8.8,6.158L3,9" transform="translate(0 -1.241)"/>
      </g>
    </g>
    <g id="Group_229-5" data-name="Group 229" transform="translate(0 404)">
      <g id="Group_7_Copy_9-5" data-name="Group 7 Copy 9" transform="translate(0.5 71.003)">
        <g id="Group_3-5" data-name="Group 3">
          <rect id="Rectangle-9" data-name="Rectangle" class="cls-12" width="374.5" height="95.678"/>
          <rect id="Rectangle_Copy-9" data-name="Rectangle Copy" class="cls-13" width="326.614" height="0.384" transform="translate(0 95.182)"/>
          <g id="_4._icons_back_arrow-5" data-name="4. icons / back arrow" transform="translate(352.455 42.843)">
            <rect id="Rectangle-10" data-name="Rectangle" class="cls-14" width="1.62" height="7.292" rx="0.81" transform="translate(1.146 10.411) rotate(-135)"/>
            <rect id="Rectangle_Copy-10" data-name="Rectangle Copy" class="cls-14" width="1.62" height="7.292" rx="0.81" transform="translate(0.058 1.146) rotate(-45)"/>
          </g>
          <rect id="Rectangle_1-5" data-name="Rectangle 1" class="cls-15" width="8" height="96" transform="translate(-0.5 -0.003)"/>
          <text id="Montag_02.03.2023-5" data-name="Montag, 02.03.2023" class="cls-16" transform="translate(23.5 25.997)"><tspan x="0" y="0">Montag, 02.03.2023</tspan></text>
          <text id="Ein_sehr_langer_Titel_der_über_mehrere_Zeilen_gehen_kann-5" data-name="Ein sehr langer Titel, der über
mehrere Zeilen gehen kann" class="cls-17" transform="translate(23.5 55.997)"><tspan x="0" y="0">Ein sehr langer Titel, der über</tspan><tspan x="0" y="24">mehrere Zeilen gehen kann</tspan></text>
        </g>
      </g>
      <path id="Icon_awesome-calendar-check-4" data-name="Icon awesome-calendar-check" class="cls-15" d="M18.484,6.783H.509A.509.509,0,0,1,0,6.274V4.748A2.035,2.035,0,0,1,2.035,2.713H4.07V.509A.509.509,0,0,1,4.579,0h1.7a.509.509,0,0,1,.509.509v2.2H12.21V.509A.509.509,0,0,1,12.718,0h1.7a.509.509,0,0,1,.509.509v2.2h2.035a2.035,2.035,0,0,1,2.035,2.035V6.274A.509.509,0,0,1,18.484,6.783ZM.509,8.14H18.484a.509.509,0,0,1,.509.509V19.671a2.035,2.035,0,0,1-2.035,2.035H2.035A2.035,2.035,0,0,1,0,19.671V8.649A.509.509,0,0,1,.509,8.14Zm14.13,4.068L13.445,11a.509.509,0,0,0-.719,0L8.23,15.46,6.28,13.495a.509.509,0,0,0-.719,0l-1.2,1.194a.509.509,0,0,0,0,.719l3.5,3.53a.509.509,0,0,0,.719,0l6.06-6.012a.509.509,0,0,0,0-.719Z" transform="translate(319.578 134.571)"/>
      <g id="Icon_feather-mail-4" data-name="Icon feather-mail" transform="translate(316.977 98.424)">
        <path id="Path_550-4" data-name="Path 550" class="cls-18" d="M4.759,6H18.834a1.765,1.765,0,0,1,1.759,1.759V18.316a1.765,1.765,0,0,1-1.759,1.759H4.759A1.765,1.765,0,0,1,3,18.316V7.759A1.765,1.765,0,0,1,4.759,6Z"/>
        <path id="Path_551-4" data-name="Path 551" class="cls-18" d="M20.594,9l-8.8,6.158L3,9" transform="translate(0 -1.241)"/>
      </g>
    </g>
    <g id="Group_229-6" data-name="Group 229" transform="translate(0 505)">
      <g id="Group_7_Copy_9-6" data-name="Group 7 Copy 9" transform="translate(0.5 71.003)">
        <g id="Group_3-6" data-name="Group 3">
          <rect id="Rectangle-11" data-name="Rectangle" class="cls-12" width="374.5" height="95.678"/>
          <rect id="Rectangle_Copy-11" data-name="Rectangle Copy" class="cls-13" width="326.614" height="0.384" transform="translate(0 95.182)"/>
          <g id="_4._icons_back_arrow-6" data-name="4. icons / back arrow" transform="translate(352.455 42.843)">
            <rect id="Rectangle-12" data-name="Rectangle" class="cls-14" width="1.62" height="7.292" rx="0.81" transform="translate(1.146 10.411) rotate(-135)"/>
            <rect id="Rectangle_Copy-12" data-name="Rectangle Copy" class="cls-14" width="1.62" height="7.292" rx="0.81" transform="translate(0.058 1.146) rotate(-45)"/>
          </g>
          <rect id="Rectangle_1-6" data-name="Rectangle 1" class="cls-15" width="8" height="96" transform="translate(-0.5 -0.003)"/>
          <text id="Montag_02.03.2023-6" data-name="Montag, 02.03.2023" class="cls-16" transform="translate(23.5 25.997)"><tspan x="0" y="0">Montag, 02.03.2023</tspan></text>
          <text id="Ein_sehr_langer_Titel_der_über_mehrere_Zeilen_gehen_kann-6" data-name="Ein sehr langer Titel, der über
mehrere Zeilen gehen kann" class="cls-17" transform="translate(23.5 55.997)"><tspan x="0" y="0">Ein sehr langer Titel, der über</tspan><tspan x="0" y="24">mehrere Zeilen gehen kann</tspan></text>
        </g>
      </g>
      <path id="Icon_awesome-calendar-check-5" data-name="Icon awesome-calendar-check" d="M18.484,6.783H.509A.509.509,0,0,1,0,6.274V4.748A2.035,2.035,0,0,1,2.035,2.713H4.07V.509A.509.509,0,0,1,4.579,0h1.7a.509.509,0,0,1,.509.509v2.2H12.21V.509A.509.509,0,0,1,12.718,0h1.7a.509.509,0,0,1,.509.509v2.2h2.035a2.035,2.035,0,0,1,2.035,2.035V6.274A.509.509,0,0,1,18.484,6.783ZM.509,8.14H18.484a.509.509,0,0,1,.509.509V19.671a2.035,2.035,0,0,1-2.035,2.035H2.035A2.035,2.035,0,0,1,0,19.671V8.649A.509.509,0,0,1,.509,8.14Zm14.13,4.068L13.445,11a.509.509,0,0,0-.719,0L8.23,15.46,6.28,13.495a.509.509,0,0,0-.719,0l-1.2,1.194a.509.509,0,0,0,0,.719l3.5,3.53a.509.509,0,0,0,.719,0l6.06-6.012a.509.509,0,0,0,0-.719Z" transform="translate(319.578 134.571)"/>
    </g>
    <g id="Group_450" data-name="Group 450" transform="translate(0 222)">
      <text id="Music" class="cls-21" transform="translate(41 564)"><tspan x="0" y="0">Music</tspan></text>
      <rect id="Rectangle_252" data-name="Rectangle 252" class="cls-22" width="375" height="63" transform="translate(0 527)"/>
      <line id="Line_65" data-name="Line 65" class="cls-23" x2="374.5" transform="translate(0.5 526.5)"/>
    </g>
    <path id="Icon_awesome-list" data-name="Icon awesome-list" d="M5.625,25.875h-4.5A1.125,1.125,0,0,0,0,27v4.5a1.125,1.125,0,0,0,1.125,1.125h4.5A1.125,1.125,0,0,0,6.75,31.5V27A1.125,1.125,0,0,0,5.625,25.875Zm0-22.5h-4.5A1.125,1.125,0,0,0,0,4.5V9a1.125,1.125,0,0,0,1.125,1.125h4.5A1.125,1.125,0,0,0,6.75,9V4.5A1.125,1.125,0,0,0,5.625,3.375Zm0,11.25h-4.5A1.125,1.125,0,0,0,0,15.75v4.5a1.125,1.125,0,0,0,1.125,1.125h4.5A1.125,1.125,0,0,0,6.75,20.25v-4.5A1.125,1.125,0,0,0,5.625,14.625ZM34.875,27h-22.5a1.125,1.125,0,0,0-1.125,1.125v2.25A1.125,1.125,0,0,0,12.375,31.5h22.5A1.125,1.125,0,0,0,36,30.375v-2.25A1.125,1.125,0,0,0,34.875,27Zm0-22.5h-22.5A1.125,1.125,0,0,0,11.25,5.625v2.25A1.125,1.125,0,0,0,12.375,9h22.5A1.125,1.125,0,0,0,36,7.875V5.625A1.125,1.125,0,0,0,34.875,4.5Zm0,11.25h-22.5a1.125,1.125,0,0,0-1.125,1.125v2.25a1.125,1.125,0,0,0,1.125,1.125h22.5A1.125,1.125,0,0,0,36,19.125v-2.25A1.125,1.125,0,0,0,34.875,15.75Z" transform="translate(39 762.625)"/>
    <path id="Icon_awesome-calendar-alt" data-name="Icon awesome-calendar-alt" class="cls-24" d="M0,32.625A3.376,3.376,0,0,0,3.375,36h24.75A3.376,3.376,0,0,0,31.5,32.625V13.5H0ZM22.5,18.844A.846.846,0,0,1,23.344,18h2.813a.846.846,0,0,1,.844.844v2.813a.846.846,0,0,1-.844.844H23.344a.846.846,0,0,1-.844-.844Zm0,9A.846.846,0,0,1,23.344,27h2.813a.846.846,0,0,1,.844.844v2.813a.846.846,0,0,1-.844.844H23.344a.846.846,0,0,1-.844-.844Zm-9-9A.846.846,0,0,1,14.344,18h2.813a.846.846,0,0,1,.844.844v2.813a.846.846,0,0,1-.844.844H14.344a.846.846,0,0,1-.844-.844Zm0,9A.846.846,0,0,1,14.344,27h2.813a.846.846,0,0,1,.844.844v2.813a.846.846,0,0,1-.844.844H14.344a.846.846,0,0,1-.844-.844Zm-9-9A.846.846,0,0,1,5.344,18H8.156A.846.846,0,0,1,9,18.844v2.813a.846.846,0,0,1-.844.844H5.344a.846.846,0,0,1-.844-.844Zm0,9A.846.846,0,0,1,5.344,27H8.156A.846.846,0,0,1,9,27.844v2.813a.846.846,0,0,1-.844.844H5.344a.846.846,0,0,1-.844-.844ZM28.125,4.5H24.75V1.125A1.128,1.128,0,0,0,23.625,0h-2.25A1.128,1.128,0,0,0,20.25,1.125V4.5h-9V1.125A1.128,1.128,0,0,0,10.125,0H7.875A1.128,1.128,0,0,0,6.75,1.125V4.5H3.375A3.376,3.376,0,0,0,0,7.875V11.25H31.5V7.875A3.376,3.376,0,0,0,28.125,4.5Z" transform="translate(171.75 762.625)"/>
    <g id="Icon_ionic-ios-mail" data-name="Icon ionic-ios-mail" transform="translate(296.625 763.125)">
      <path id="Path_552" data-name="Path 552" class="cls-24" d="M32.386,10.357,24.82,18.063a.136.136,0,0,0,0,.2L30.115,23.9a.912.912,0,0,1,0,1.294.917.917,0,0,1-1.294,0l-5.273-5.618a.144.144,0,0,0-.2,0l-1.287,1.308a5.661,5.661,0,0,1-4.036,1.7,5.775,5.775,0,0,1-4.12-1.751l-1.238-1.259a.144.144,0,0,0-.2,0L7.186,25.193a.917.917,0,0,1-1.294,0,.912.912,0,0,1,0-1.294l5.295-5.639a.15.15,0,0,0,0-.2L3.614,10.357a.139.139,0,0,0-.239.1v15.42a2.257,2.257,0,0,0,2.25,2.25h24.75a2.257,2.257,0,0,0,2.25-2.25V10.455A.141.141,0,0,0,32.386,10.357Z"/>
      <path id="Path_553" data-name="Path 553" class="cls-24" d="M18,20.749A3.823,3.823,0,0,0,20.749,19.6L31.781,8.367a2.21,2.21,0,0,0-1.392-.492H5.618a2.2,2.2,0,0,0-1.392.492L15.258,19.6A3.823,3.823,0,0,0,18,20.749Z"/>
    </g>
  </g>
</svg>
