<svg xmlns="http://www.w3.org/2000/svg" xmlns:xlink="http://www.w3.org/1999/xlink" width="375" height="812" viewBox="0 0 375 812">
  <defs>
    <style>
      .cls-1 {
        fill: #65a3ff;
      }

      .cls-2 {
        clip-path: url(#clip-New_Event);
      }

      .cls-3 {
        clip-path: url(#clip-path);
      }

      .cls-10, .cls-12, .cls-16, .cls-22, .cls-4, .cls-5, .cls-8, .cls-9 {
        fill: #fff;
      }

      .cls-18, .cls-4, .cls-5 {
        font-size: 15px;
      }

      .cls-4 {
        font-family: SFProDisplay-Medium, SF Pro Display;
      }

      .cls-13, .cls-14, .cls-16, .cls-18, .cls-4 {
        font-weight: 500;
      }

      .cls-5 {
        font-family: SFProDisplay-Regular, SF Pro Display;
      }

      .cls-6 {
        fill: rgba(0,0,0,0);
      }

      .cls-11, .cls-15, .cls-7 {
        fill: none;
      }

      .cls-11, .cls-7 {
        stroke-miterlimit: 10;
      }

      .cls-7, .cls-8 {
        opacity: 0.4;
      }

      .cls-10 {
        font-size: 12px;
        font-family: SFProText-Regular, SF Pro Text;
      }

      .cls-11 {
        stroke: #fff;
      }

      .cls-12 {
        font-size: 10px;
        font-family: SFProText-Semibold, SF Pro Text;
        font-weight: 600;
      }

      .cls-13, .cls-17, .cls-18 {
        fill: #9c9c9e;
      }

      .cls-13, .cls-14 {
        font-size: 15.5px;
      }

      .cls-13, .cls-14, .cls-16, .cls-18 {
        font-family: HelveticaNeue-Medium, Helvetica Neue;
      }

      .cls-14 {
        fill: #222;
      }

      .cls-15 {
        stroke: #dedede;
      }

      .cls-16 {
        font-size: 14px;
      }

      .cls-19 {
        fill: #caddfb;
      }

      .cls-20 {
        fill: #4889f6;
      }

      .cls-21, .cls-22 {
        stroke: none;
      }

      .cls-23 {
        filter: url(#Ellipse_68);
      }
    </style>
    <clipPath id="clip-path">
      <rect id="Mask" class="cls-1" width="375" height="70.441" transform="translate(375 70.441) rotate(180)"/>
    </clipPath>
    <filter id="Ellipse_68" x="322.5" y="181.5" width="29" height="29" filterUnits="userSpaceOnUse">
      <feOffset dy="3" input="SourceAlpha"/>
      <feGaussianBlur stdDeviation="1.5" result="blur"/>
      <feFlood flood-opacity="0.294"/>
      <feComposite operator="in" in2="blur"/>
      <feComposite in="SourceGraphic"/>
    </filter>
    <clipPath id="clip-New_Event">
      <rect width="375" height="812"/>
    </clipPath>
  </defs>
  <g id="New_Event" data-name="New Event" class="cls-2">
    <rect class="cls-9" width="375" height="812"/>
    <g id="nav_bar" data-name="nav bar" transform="translate(375) rotate(180)">
      <g id="Group_24" data-name="Group 24" transform="translate(0 -70.441)">
        <g id="nav_bar-2" data-name="nav bar">
          <g id="Group_23" data-name="Group 23">
            <g id="ui_pic" data-name="ui/pic">
              <rect id="Mask-2" data-name="Mask" class="cls-1" width="375" height="70.441" transform="translate(375 70.441) rotate(180)"/>
            </g>
          </g>
        </g>
        <text id="Connect" class="cls-4" transform="translate(374.667 33.466) rotate(180)"><tspan x="146.462" y="14">Neues Event</tspan></text>
        <text id="Connect-2" data-name="Connect" class="cls-5" transform="translate(82.667 33.466) rotate(180)"><tspan x="5.321" y="14">Speichern</tspan></text>
      </g>
      <g id="Bars_Status_Black" data-name="Bars/Status/Black" transform="translate(375) rotate(180)">
        <rect id="Bars_Status_Black_background" data-name="Bars/Status/Black background" class="cls-6" width="375" height="22.14"/>
        <g id="Pin_Right" data-name="Pin Right" transform="translate(298.5 3.5)">
          <g id="Battery" transform="translate(8.5)">
            <g id="Battery-2" data-name="Battery" transform="translate(36 1)">
              <g id="Border" class="cls-7">
                <path class="cls-21" d="M0,2.5A2.5,2.5,0,0,1,2.5,0h19A2.5,2.5,0,0,1,24,2.5V9a2.5,2.5,0,0,1-2.5,2.5H2.5A2.5,2.5,0,0,1,0,9Z"/>
                <path class="cls-22" d="M 2.5 1 C 1.67289924621582 1 1 1.672900199890137 1 2.5 L 1 9 C 1 9.827099800109863 1.67289924621582 10.5 2.5 10.5 L 20.14764022827148 10.5 L 21.5 10.5 C 22.32710075378418 10.5 23 9.827099800109863 23 9 L 23 2.5 C 23 1.672900199890137 22.32710075378418 1 21.5 1 L 2.5 1 M 2.5 0 L 21.5 0 C 22.88071060180664 0 24 1.119290351867676 24 2.5 L 24 9 C 24 10.38070964813232 22.88071060180664 11.5 21.5 11.5 L 20.14764022827148 11.5 L 0 11.5 L 2.5 11.5 C 1.119289398193359 11.5 0 10.38070964813232 0 9 L 0 2.5 C 0 1.119290351867676 1.119289398193359 0 2.5 0 Z"/>
              </g>
              <path id="Nub" class="cls-8" d="M0,3.874H0V0A2,2,0,0,1,1.5,1.937,2,2,0,0,1,0,3.873Z" transform="translate(25 4)"/>
              <rect id="Charge" class="cls-9" width="20" height="7.5" rx="0.5" transform="translate(2 2)"/>
            </g>
            <text id="_100_" data-name="100%" class="cls-10"><tspan x="2.209" y="11">100%</tspan></text>
          </g>
          <path id="Bluetooth" class="cls-11" d="M0,2,6,7.5,3,10V0L6,2.5,0,8" transform="translate(0 1.5)"/>
        </g>
        <text id="Time" class="cls-12" transform="translate(183.5 14)"><tspan x="-20.137" y="0">9:41 AM</tspan></text>
        <g id="Signal">
          <rect id="Signal_background" data-name="Signal background" class="cls-6" width="139" height="20" transform="translate(0)"/>
          <text id="Carrier" class="cls-10" transform="translate(26 14.5)"><tspan x="0" y="0">Sketch</tspan></text>
          <path id="Mobile_Signal" data-name="Mobile Signal" class="cls-9" d="M14.5,10a1,1,0,0,1-1-1V1a1,1,0,0,1,1-1h1a1,1,0,0,1,1,1V9a1,1,0,0,1-1,1ZM10,10A1,1,0,0,1,9,9V3a1,1,0,0,1,1-1h1a1,1,0,0,1,1,1V9a1,1,0,0,1-1,1ZM5.5,10a1,1,0,0,1-1-1V5a1,1,0,0,1,1-1h1a1,1,0,0,1,1,1V9a1,1,0,0,1-1,1ZM1,10A1,1,0,0,1,0,9V6.5a1,1,0,0,1,1-1H2a1,1,0,0,1,1,1V9a1,1,0,0,1-1,1Z" transform="translate(6 5)"/>
          <path id="Wifi" class="cls-9" d="M7.17,10h0L4.958,7.788a3.5,3.5,0,0,1,4.424,0L7.171,10ZM3.892,6.724h0L2.477,5.306a7,7,0,0,1,9.387,0L10.448,6.722a5,5,0,0,0-6.555,0ZM1.414,4.245h0L0,2.83a10.5,10.5,0,0,1,14.341,0L12.927,4.244a8.5,8.5,0,0,0-11.512,0Z" transform="translate(71.33 5)"/>
        </g>
      </g>
    </g>
    <text id="Titel" class="cls-13" transform="translate(16 97)"><tspan x="0" y="0">Titel</tspan></text>
    <text id="Ein_Veranstaltungstitel" data-name="Ein Veranstaltungstitel" class="cls-14" transform="translate(131 99)"><tspan x="0" y="0">Ein Veranstaltungstitel</tspan></text>
    <line id="Line_21" data-name="Line 21" class="cls-15" x2="343" transform="translate(16.5 116.5)"/>
    <g id="Group_222" data-name="Group 222">
      <text id="An_event_title" data-name="An event title" class="cls-14" transform="translate(131 148)"><tspan x="0" y="0">An event title</tspan></text>
      <text id="Titel_en_" data-name="Titel (en)" class="cls-13" transform="translate(16 147)"><tspan x="0" y="0">Titel (en)</tspan></text>
      <line id="Line_48" data-name="Line 48" class="cls-15" x2="343" y2="1" transform="translate(17.5 165.5)"/>
    </g>
    <g id="Group_223" data-name="Group 223" transform="translate(3 212)">
      <text id="Wöchentlich_Montags" data-name="Wöchentlich Montags" class="cls-14" transform="translate(131 148)"><tspan x="0" y="0">Wöchentlich Montags</tspan></text>
      <text id="Wdh." class="cls-13" transform="translate(16 147)"><tspan x="0" y="0">Wdh.</tspan></text>
      <path id="Path_543" data-name="Path 543" class="cls-15" d="M360,0" transform="translate(0.5 166.5)"/>
    </g>
    <g id="Group_220" data-name="Group 220">
      <g id="Group_219" data-name="Group 219" transform="translate(0 -40)">
        <text id="SIGN_IN" data-name="SIGN IN" class="cls-16" transform="translate(180 329)"><tspan x="-25.795" y="0">SIGN IN</tspan></text>
        <text id="_23.05.2023_23:23" data-name="23.05.2023 23:23" class="cls-14" transform="translate(131 289)"><tspan x="0" y="0">23.05.2023 23:23</tspan></text>
        <g id="Group_214" data-name="Group 214" transform="translate(0 175)">
          <text id="Start" class="cls-13" transform="translate(17 120)"><tspan x="0" y="0">Start</tspan></text>
          <g id="android-arrow-dropdown" transform="translate(331 96)">
            <path id="Path_542" data-name="Path 542" class="cls-17" d="M6,9l5.09,5.09L16.18,9Z"/>
          </g>
          <line id="Line_21-2" data-name="Line 21" class="cls-15" x2="343" transform="translate(16.5 133.5)"/>
        </g>
      </g>
    </g>
    <text id="_23.05.2023_23:23-2" data-name="23.05.2023 23:23" class="cls-14" transform="translate(131 301)"><tspan x="0" y="0">23.05.2023 23:23</tspan></text>
    <text id="Ende" class="cls-13" transform="translate(17 307)"><tspan x="0" y="0">Ende</tspan></text>
    <path id="Path_542-2" data-name="Path 542" class="cls-17" d="M6,9l5.09,5.09L16.18,9Z" transform="translate(331 283)"/>
    <line id="Line_21-3" data-name="Line 21" class="cls-15" x2="343" transform="translate(16.5 320.5)"/>
    <line id="Line_49" data-name="Line 49" class="cls-15" x2="343" transform="translate(16.5 380.5)"/>
    <g id="Group_228" data-name="Group 228">
      <line id="Line_46" data-name="Line 46" class="cls-15" x2="342" y2="1" transform="translate(16.5 218.5)"/>
      <text id="Ganztägig" class="cls-18" transform="translate(17 201)"><tspan x="0" y="0">Ganztägig</tspan></text>
      <g id="Group_218" data-name="Group 218" transform="translate(7)">
        <rect id="Rectangle_135" data-name="Rectangle 135" class="cls-19" width="33" height="12" rx="6" transform="translate(305 187)"/>
        <g class="cls-23" transform="matrix(1, 0, 0, 1, -7, 0)">
          <circle id="Ellipse_68-2" data-name="Ellipse 68" class="cls-20" cx="10" cy="10" r="10" transform="translate(327 183)"/>
        </g>
      </g>
    </g>
    <path id="Path_544" data-name="Path 544" class="cls-17" d="M6,9l5.09,5.09L16.18,9Z" transform="translate(331 343)"/>
    <path id="Path_545" data-name="Path 545" class="cls-17" d="M6,9l5.09,5.09L16.18,9Z" transform="translate(331 343)"/>
    <path id="Path_546" data-name="Path 546" class="cls-17" d="M6,9l5.09,5.09L16.18,9Z" transform="translate(330.82 400)"/>
    <g id="Group_224" data-name="Group 224" transform="translate(1 2)">
      <text id="Ort" class="cls-13" transform="translate(16 410)"><tspan x="0" y="0">Ort</tspan></text>
      <text id="Queerreferat_Aachen" data-name="Queerreferat Aachen" class="cls-14" transform="translate(131 410)"><tspan x="0" y="0">Queerreferat Aachen</tspan></text>
      <line id="Line_50" data-name="Line 50" class="cls-15" x2="343" transform="translate(16.5 436.5)"/>
    </g>
    <g id="Group_225" data-name="Group 225" transform="translate(1 59)">
      <text id="Leitung" class="cls-13" transform="translate(16 410)"><tspan x="0" y="0">Leitung</tspan></text>
      <text id="Maxi_Muster_" data-name="Maxi Muster*" class="cls-14" transform="translate(131 410)"><tspan x="0" y="0">Maxi Muster*</tspan></text>
      <line id="Line_50-2" data-name="Line 50" class="cls-15" x2="343" transform="translate(16.5 436.5)"/>
    </g>
    <g id="Group_226" data-name="Group 226">
      <text id="Beschreibung" class="cls-13" transform="translate(16 527)"><tspan x="0" y="0">Beschreibung</tspan></text>
      <text id="Lorem_ipsum_dolor_sit_amet_consetetur_sadipscing_elitr_sed_diam_nonumy_eirmod_tempor_invidunt_ut_labore_et_dolore_magna_aliquyam_erat_sed_diam_voluptua._At_vero" data-name="Lorem ipsum dolor sit amet, consetetur sadipscing elitr, sed diam nonumy eirmod tempor invidunt ut labore et dolore magna aliquyam erat, sed diam voluptua. At vero" class="cls-14" transform="translate(131 512)"><tspan x="0" y="15">Lorem ipsum dolor sit amet, </tspan><tspan x="0" y="33">consetetur sadipscing elitr, </tspan><tspan x="0" y="51">sed diam nonumy eirmod </tspan><tspan x="0" y="69">tempor invidunt ut labore et </tspan><tspan x="0" y="87">dolore magna aliquyam erat, </tspan><tspan x="0" y="105">sed diam voluptua. At vero</tspan></text>
      <line id="Line_50-3" data-name="Line 50" class="cls-15" x2="343" transform="translate(16.5 634.5)"/>
    </g>
    <g id="Group_227" data-name="Group 227" transform="translate(1 137)">
      <text id="Beschreibung_en_" data-name="Beschreibung
(en)" class="cls-13" transform="translate(16 527)"><tspan x="0" y="0">Beschreibung</tspan><tspan x="0" y="18">(en)</tspan></text>
      <text id="Lorem_ipsum_dolor_sit_amet_consetetur_sadipscing_elitr_sed_diam_nonumy_eirmod_tempor_invidunt_ut_labore_et_dolore_magna_aliquyam_erat_sed_diam_voluptua._At_vero-2" data-name="Lorem ipsum dolor sit amet, consetetur sadipscing elitr, sed diam nonumy eirmod tempor invidunt ut labore et dolore magna aliquyam erat, sed diam voluptua. At vero" class="cls-14" transform="translate(131 512)"><tspan x="0" y="15">Lorem ipsum dolor sit amet, </tspan><tspan x="0" y="33">consetetur sadipscing elitr, </tspan><tspan x="0" y="51">sed diam nonumy eirmod </tspan><tspan x="0" y="69">tempor invidunt ut labore et </tspan><tspan x="0" y="87">dolore magna aliquyam erat, </tspan><tspan x="0" y="105">sed diam voluptua. At vero</tspan></text>
      <line id="Line_50-4" data-name="Line 50" class="cls-15" x2="343" transform="translate(16.5 634.5)"/>
    </g>
    <text id="Connect-3" data-name="Connect" class="cls-5" transform="translate(17 36.974)"><tspan x="2.56" y="14">Abbrechen</tspan></text>
  </g>
</svg>
